<svg width="87" height="87" viewBox="0 0 87 87" fill="none" xmlns="http://www.w3.org/2000/svg">
<g clip-path="url(#clip0_21_841)">
<path d="M79.3449 27.0651C79.7802 26.7748 79.9253 26.1944 79.7802 25.759V25.614C78.7645 20.6797 76.007 16.3261 71.9437 13.2786C71.5083 12.9883 71.073 12.8432 70.4926 13.1335C65.4133 14.8749 61.3499 14.8749 58.1573 12.9884C53.078 9.94088 52.2073 2.68478 52.2073 2.68478C52.2073 2.10435 51.7719 1.66899 51.1915 1.52375C46.2575 -0.507999 40.7428 -0.507999 35.6635 1.52375C35.2281 1.66882 34.7928 2.10418 34.7928 2.68478C34.7928 2.68478 33.9221 9.79565 28.8428 12.9884C25.6502 15.0202 21.4416 15.0202 16.3623 13.1335C15.9269 12.8432 15.4916 12.9884 15.0562 13.2786C10.9929 16.3261 8.23564 20.6797 7.21968 25.6138V25.7588C7.21968 26.1942 7.36474 26.7746 7.65504 27.0649C12.0087 31.4186 14.4758 37.949 14.4758 44.9148C14.4758 51.8806 12.0087 58.4111 7.65504 62.7647C7.21968 63.055 7.07462 63.6354 7.21968 64.0708V64.2159C8.23547 69.1499 10.9929 73.5035 15.0562 76.5511C15.4916 76.8414 15.9269 76.9865 16.3623 76.8414C17.233 76.5511 35.5183 70.3109 42.1938 86.1291C42.3389 86.7095 42.9194 86.9998 43.4999 86.9998C44.0803 86.9998 44.6609 86.7095 44.806 85.984C51.6267 70.3109 69.912 76.406 70.6375 76.6963C71.0728 76.9866 71.5082 76.8414 71.9435 76.5513C76.0069 73.5037 78.7643 69.1501 79.7801 64.216V64.071C79.7801 63.6356 79.635 63.0552 79.3447 62.7649C70.3473 53.7673 70.3473 36.0625 79.3449 27.0651ZM70.7827 73.6489C67.0095 72.6332 51.1913 69.005 43.4999 82.2112C38.8559 74.3746 31.3097 72.4881 25.2146 72.4881C21.1513 72.4881 17.6684 73.3588 16.2171 73.7942C13.3146 71.3271 11.1378 67.9894 10.2671 64.2162C14.7657 59.4272 17.3779 52.4614 17.3779 44.9152C17.3779 37.3689 14.7657 30.4031 10.2671 25.4689C11.1378 21.6957 13.3146 18.358 16.2171 15.8909C21.8768 17.7774 26.6658 17.6324 30.439 15.3105C35.5183 12.1175 37.1147 6.02245 37.55 3.70057C41.4683 2.39448 45.5316 2.39448 49.4499 3.70057C49.8853 6.02245 51.4816 12.1175 56.5608 15.3103C60.334 17.6322 65.123 17.7774 70.7827 15.8907C73.8302 18.3578 75.862 21.6955 76.7327 25.4687C67.2998 35.6271 67.2998 53.9124 76.7327 64.071C75.862 67.844 73.8302 71.1818 70.7827 73.6489Z" fill="#333C4F"/>
<path d="M45.3866 71.7623C44.8061 72.3427 44.0805 72.7781 43.5 73.3587C42.9196 72.7783 42.1939 72.1977 41.6135 71.7623C40.8879 71.3269 40.0171 71.472 39.5818 72.0526C39.1464 72.633 39.2915 73.649 39.8721 74.0844C40.8879 74.6648 41.6135 75.3904 42.4842 76.2612C42.7745 76.5515 43.0647 76.6965 43.5 76.6965C43.9354 76.6965 44.2257 76.5515 44.5158 76.2612C45.3866 75.5355 46.2573 74.81 47.128 74.0844C47.7084 73.649 47.8537 72.6332 47.4183 72.0526C46.9829 71.472 45.967 71.3269 45.3866 71.7623Z" fill="#333C4F"/>
<path d="M34.7927 68.2794C32.9062 67.5537 30.7294 67.1183 28.5526 66.9733C27.6818 66.9733 27.1014 67.5537 26.9562 68.2794C26.8111 69.1501 27.5366 69.7305 28.2623 69.8757C30.294 70.0208 32.1805 70.4562 33.922 71.0368C34.067 71.0368 34.2123 71.0368 34.3573 71.0368C34.9378 71.0368 35.5184 70.6014 35.6634 70.166C35.9536 69.2953 35.5182 68.5697 34.7927 68.2794Z" fill="#333C4F"/>
<path d="M21.0063 66.9733C19.9905 67.1183 18.9746 67.2636 18.1039 67.4086C17.5234 66.683 17.0881 66.1025 16.7978 65.3769C17.3782 64.6512 17.9588 63.7805 18.5392 62.9098C18.8295 62.1841 18.6843 61.3134 17.9588 60.878C17.2331 60.5877 16.3624 60.733 15.927 61.4584C15.3466 62.4742 14.766 63.4902 14.0405 64.3609C13.7502 64.7963 13.7502 65.3767 13.8955 65.8121C14.4759 67.4085 15.3466 68.7146 16.5076 70.0206C16.6527 70.3109 17.0881 70.456 17.5234 70.456C17.5234 70.456 17.6685 70.456 17.8137 70.456C18.9748 70.1657 20.1356 70.0206 21.2966 69.8756C22.1674 69.7305 22.7478 69.0049 22.6027 68.2792C22.4575 67.4086 21.8771 66.8282 21.0063 66.9733Z" fill="#333C4F"/>
<path d="M21.5866 34.4663C21.4415 33.5955 20.5708 33.1602 19.8451 33.4505C18.9744 33.5955 18.539 34.4663 18.8293 35.1919C19.4097 37.0784 19.7 39.1102 19.9903 41.1419C20.1354 41.8676 20.716 42.448 21.4415 42.448C21.4415 42.448 21.5866 42.448 21.5866 42.5931C22.4573 42.448 23.0377 41.7224 22.8927 40.9967C22.6025 38.8199 22.1672 36.6431 21.5866 34.4663Z" fill="#333C4F"/>
<path d="M21.4417 47.3819C20.571 47.2369 19.9905 47.9624 19.8453 48.688C19.7002 50.8649 19.2649 52.8966 18.6843 54.7831C18.5392 55.5088 18.9746 56.2343 19.7001 56.5246C19.8451 56.5246 19.9904 56.5246 20.1354 56.5246C20.8611 56.5246 21.4415 56.0892 21.4415 55.5088C22.022 53.477 22.4573 51.1552 22.7476 48.9783C22.7478 48.1076 22.1674 47.5272 21.4417 47.3819Z" fill="#333C4F"/>
<path d="M18.394 26.9199C17.9587 26.0491 17.3782 25.1784 16.7976 24.4527C17.0879 23.7271 17.5233 23.1467 17.9587 22.5662C18.9744 22.7113 19.9904 22.8565 20.8611 23.0016C21.5868 23.0016 22.3123 22.4212 22.4575 21.6955C22.4575 20.9698 21.8771 20.2444 21.0064 20.0991C19.9906 19.9541 18.8296 19.8088 17.6685 19.5187C17.0881 19.3736 16.5075 19.5187 16.2174 19.9541C15.2016 21.1151 14.3309 22.5662 13.7503 24.0174C13.46 24.4527 13.6052 25.0332 13.8953 25.4685C14.621 26.3393 15.2014 27.3551 15.7818 28.371C16.0721 28.8064 16.6526 29.0967 17.0879 29.0967C17.3782 29.0967 17.6684 29.0967 17.8136 28.9516C18.5391 28.5163 18.8294 27.6455 18.394 26.9199Z" fill="#333C4F"/>
<path d="M33.9222 16.3261C32.3258 17.6322 30.5843 18.7932 28.5527 19.3736C27.8271 19.6639 27.3917 20.5346 27.682 21.2601C27.9723 21.8406 28.5527 22.2759 29.1332 22.2759C29.2782 22.2759 29.4235 22.2759 29.4235 22.2759C31.7453 21.4052 33.9222 20.2442 35.8088 18.5027C36.3893 17.9223 36.5345 17.0516 35.9539 16.471C35.3733 15.8907 34.5026 15.7456 33.9222 16.3261Z" fill="#333C4F"/>
<path d="M47.128 7.03839C46.9829 6.45796 46.5475 6.16766 45.9669 6.02259C44.3705 5.7323 42.6291 5.7323 40.8876 6.02259C40.3072 6.16766 39.8718 6.45796 39.7266 7.03839C39.4363 8.19941 39.001 9.2152 38.5656 10.231C38.2753 10.9567 38.5656 11.8274 39.2913 12.1175C39.4363 12.2626 39.7266 12.2626 39.8717 12.2626C40.4521 12.2626 40.8875 11.9723 40.8875 11.3918C41.3228 10.5211 41.7582 9.50533 42.0485 8.6346C42.9192 8.48954 43.6449 8.48954 44.5156 8.6346C44.951 9.65039 45.2413 10.5211 45.6766 11.3918C45.9669 12.1175 46.8377 12.4076 47.5631 12.1175C48.2886 11.8274 48.5789 10.9565 48.2888 10.231C47.8536 9.2152 47.4183 8.19924 47.128 7.03839Z" fill="#333C4F"/>
<path d="M57.867 22.2761C58.4474 22.2761 59.028 21.8408 59.1731 21.2603C59.4634 20.3896 59.028 19.6639 58.3023 19.3738C56.2706 18.7934 54.5291 17.7774 52.9329 16.3263C52.3525 15.8909 51.4818 15.8909 50.9012 16.4713C50.4658 17.0518 50.4658 17.9225 51.0462 18.5031C52.9327 20.2445 55.1096 21.5506 57.4316 22.2763C57.5767 22.2761 57.7217 22.2761 57.867 22.2761Z" fill="#333C4F"/>
<path d="M66.1389 23.0016C67.1547 23.0016 68.0254 22.7113 69.0413 22.5662C69.4767 23.1467 69.9121 23.7273 70.2024 24.4527C69.6219 25.1784 69.0413 26.0491 68.606 26.9199C68.3157 27.6455 68.4609 28.5163 69.1864 28.9516C69.4767 29.0967 69.6218 29.0967 69.9121 29.0967C70.3474 29.0967 70.7828 28.8064 71.0731 28.371C71.6535 27.3552 72.2341 26.3393 72.9596 25.4685C73.2499 25.0332 73.2499 24.4527 73.1047 24.0174C72.5242 22.5662 71.6535 21.1149 70.6376 19.9541C70.2022 19.5187 69.7668 19.3736 69.1864 19.5187C68.0254 19.809 67.0096 19.9541 65.8486 20.0991C64.9778 20.2442 64.3974 20.9698 64.5425 21.6955C64.6875 22.5662 65.2681 23.1468 66.1389 23.0016Z" fill="#333C4F"/>
<path d="M65.4133 42.4479H65.5583C66.284 42.4479 66.8644 42.0125 67.0095 41.1418C67.1546 38.965 67.5899 36.9332 68.1705 35.0467C68.3156 34.321 67.8802 33.4503 67.1547 33.3053C66.4292 33.1602 65.7036 33.5956 65.4133 34.321C64.8328 36.3528 64.3975 38.6747 64.1072 40.8515C64.1072 41.5772 64.6876 42.3028 65.4133 42.4479Z" fill="#333C4F"/>
<path d="M66.8643 56.5246C67.0094 56.5246 67.1546 56.5246 67.1546 56.5246C68.0254 56.3795 68.4607 55.5088 68.1704 54.7831C67.59 52.7514 67.2997 50.7198 67.0094 48.688C66.8643 47.8173 66.2837 47.2369 65.413 47.382C64.5423 47.527 63.9619 48.2527 64.1069 48.9783C64.3972 51.1552 64.8326 53.332 65.413 55.5088C65.7035 56.0892 66.2839 56.5246 66.8643 56.5246Z" fill="#333C4F"/>
<path d="M68.6058 62.9099C69.0411 63.7807 69.6216 64.6514 70.2022 65.377C69.7668 66.1027 69.3314 66.8282 68.8961 67.4088C67.8803 67.2637 67.0096 67.1185 65.9936 66.9734C65.1229 66.9734 64.5425 67.5539 64.3972 68.2795C64.3972 69.0052 64.9776 69.7307 65.7033 69.8759C66.8643 70.021 68.0252 70.1662 69.1862 70.4563C69.3313 70.4563 69.3313 70.4563 69.4765 70.4563C69.9119 70.4563 70.3472 70.3113 70.6375 70.021C71.7986 68.7149 72.6693 67.4088 73.2497 65.8124C73.54 65.377 73.3948 64.7966 73.1047 64.3613C72.379 63.4905 71.7986 62.4747 71.2181 61.4588C70.7828 60.7331 69.912 60.443 69.1864 60.8783C68.4607 61.3137 68.1704 62.1843 68.6058 62.9099Z" fill="#333C4F"/>
<path d="M58.4474 66.8282C56.2706 67.1185 54.2389 67.5539 52.2073 68.1343C51.4816 68.4246 51.0462 69.2954 51.3365 70.0209C51.6268 70.6013 52.2073 71.0366 52.7877 71.0366C52.9328 71.0366 53.078 70.8916 53.078 70.8916C54.8194 70.3112 56.706 69.8758 58.7377 69.7306C59.6084 69.5855 60.1889 68.8598 60.0438 68.1342C59.8986 67.2636 59.3181 66.8282 58.4474 66.8282Z" fill="#333C4F"/>
</g>
<defs>
<clipPath id="clip0_21_841">
<rect width="87" height="87" fill="white"/>
</clipPath>
</defs>
</svg>
