<svg width="92" height="92" viewBox="0 0 92 92" fill="none" xmlns="http://www.w3.org/2000/svg">
<g clip-path="url(#clip0_21_889)">
<path d="M91.5323 23.7459C90.9087 23.1224 89.9733 23.1224 89.3498 23.7459C83.9678 28.8371 79.5357 29.4473 74.9142 25.4542L76.4105 24.2135C80.4638 20.0043 80.4638 13.3008 76.4105 9.24765C72.3571 5.19431 65.6536 5.19431 61.4445 9.40358L60.2449 10.8542L58.6383 9.24765C54.4292 5.19431 47.7256 5.19431 43.6724 9.24765C41.6458 11.2742 40.5545 13.9245 40.5545 16.7306C40.5545 19.5367 41.6458 22.187 43.6724 24.2135L46.7517 27.1698L24.7495 53.7744L19.5085 48.5334C15.2994 44.4801 8.59575 44.4801 4.54259 48.5334C2.51583 50.56 1.42448 53.2103 1.42448 56.0164C1.42448 58.8224 2.51583 61.4727 4.54241 63.4993L11.2236 70.1295L0.333317 83.298C-0.1343 83.9216 -0.1343 84.7011 0.48925 85.3246C0.801114 85.6365 1.1128 85.7922 1.5806 85.7922C1.89246 85.7922 2.36008 85.6363 2.51601 85.4804L15.688 74.5594L24.965 83.7656C25.2769 84.0775 25.5886 84.2333 26.0564 84.2333C26.3682 84.2333 26.8359 84.0773 27.1477 83.9214C27.7713 83.2978 27.7713 82.3624 27.1477 81.7389L18.028 72.6192L37.7114 56.2993L42.4253 61.1605C44.4519 63.1871 47.1022 64.1225 49.5966 64.1225C52.5586 64.1225 55.3648 62.8754 57.5473 61.1605C61.6007 56.9512 61.6007 50.2478 57.5473 46.1946L54.0029 42.7919L72.512 27.4459C75.2397 29.9256 78.0855 31.2287 80.9318 31.2287C84.3614 31.2287 87.9471 29.5138 91.5326 25.9283C92.1558 25.3049 92.1558 24.3695 91.5323 23.7459ZM45.8547 22.031C44.4517 20.628 43.6722 18.7572 43.6722 16.7306C43.6722 14.704 44.4517 12.8332 45.8547 11.4302C48.8167 8.46816 53.4936 8.46816 56.4556 11.4302L58.2688 13.2433L48.7237 24.7852L45.8547 22.031ZM6.72492 61.3168C5.32189 59.9138 4.54241 58.0429 4.54241 56.0164C4.54241 53.9898 5.32189 52.1189 6.72492 50.7159C9.68692 47.7539 14.3638 47.7539 17.3258 50.7159L22.7735 56.1637L13.1763 67.7684L6.72492 61.3168ZM13.2726 72.5412L13.4446 72.3334L13.4805 72.3689L13.2726 72.5412ZM15.389 69.9807L60.4671 15.4416L64.3284 19.3029L62.8474 20.7839C62.2239 21.4075 62.2239 22.3429 62.8474 22.9664C63.1593 23.2783 63.471 23.4341 63.9387 23.4341C64.4065 23.4341 64.7182 23.2781 65.0301 22.9664L70.1746 17.8219C70.7981 17.1984 70.7981 16.263 70.1746 15.6394C69.551 15.0159 68.6156 15.0159 67.9921 15.6394L66.5111 17.1204L62.4425 13.0518L63.7828 11.4302C65.1859 10.0271 67.0567 9.24765 69.0833 9.24765C71.1098 9.24765 72.8247 10.0271 74.2278 11.4302C75.6308 12.8332 76.4103 14.704 76.4103 16.7306C76.4103 18.7572 75.6308 20.628 74.3837 21.8751L15.8295 70.4214L15.389 69.9807ZM55.3645 48.5334C58.1705 51.4954 58.1705 56.1723 55.3645 58.9783C52.5584 61.3168 47.7256 61.9403 44.7636 58.9783L40.1023 54.3171L51.6084 44.7772L55.3645 48.5334Z" fill="#333C4F"/>
</g>
<defs>
<clipPath id="clip0_21_889">
<rect width="92" height="92" fill="white"/>
</clipPath>
</defs>
</svg>
