<svg width="98" height="88" viewBox="0 0 98 88" fill="none" xmlns="http://www.w3.org/2000/svg"><path d="M97.8411 70.9249C97.5147 68.9667 96.2094 67.1717 94.5774 65.8664L55.7404 36.4876V28.0082C55.7404 25.5605 53.7822 23.6023 51.3345 23.6023H50.6818V20.1755C55.2508 19.3595 58.8409 15.4432 58.8409 10.5477C58.8409 5.16273 54.435 0.756836 49.0501 0.756836C43.6651 0.756836 39.2592 5.16273 39.2592 10.5477C39.2592 11.5268 39.9118 12.1795 40.8909 12.1795C41.87 12.1795 42.5227 11.5268 42.5227 10.5477C42.5227 6.95779 45.4599 4.02053 49.0499 4.02053C52.6398 4.02053 55.577 6.95779 55.577 10.5477C55.577 14.1376 52.6398 17.0749 49.0499 17.0749C48.0708 17.0749 47.4181 17.8909 47.4181 18.87V23.6023H46.9286C44.4809 23.6023 42.5227 25.5605 42.5227 28.0082V36.2407L3.35916 65.8664C1.5641 67.1719 0.421899 68.9667 0.0954724 70.9249C-0.230954 73.3726 0.25859 75.8204 1.89053 77.7785C3.52228 79.5736 5.80688 80.7158 8.2546 80.7158H21.3092C21.3092 84.3057 24.2464 87.243 27.8364 87.243C31.4263 87.243 34.3635 84.3057 34.3635 80.7158H63.7362C63.7362 84.3057 66.6734 87.243 70.2634 87.243C73.8533 87.243 76.7906 84.3057 76.7906 80.7158H89.8451C92.2928 80.7158 94.5774 79.5736 96.0461 77.7785C97.678 75.8204 98.3307 73.3726 97.8411 70.9249ZM45.6231 28.0082C45.6231 27.3555 46.1126 26.866 46.7653 26.866H48.2783C48.5018 26.9711 48.7611 27.0291 49.0499 27.0291C49.3111 27.0291 49.548 26.9696 49.7565 26.866H51.1712C51.8238 26.866 52.3134 27.3555 52.3134 28.0082V33.8827L50.5183 32.4141C50.1024 32.0813 49.5591 31.9192 48.9969 31.9257C48.8382 31.9236 48.6796 31.9396 48.5232 31.9718C48.1383 32.041 47.7583 32.1871 47.4179 32.4141L45.6229 33.8827L45.6231 28.0082ZM27.8364 83.9793C26.0413 83.9793 24.5727 82.5107 24.5727 80.7156V74.1884V70.9247C24.5727 69.1297 26.0413 67.661 27.8364 67.661C29.6314 67.661 31.1 69.1297 31.1 70.9247V74.1884V80.7156C31.0999 82.5107 29.6312 83.9793 27.8364 83.9793ZM63.7362 70.9249H34.3635C34.3635 67.335 31.4263 64.3977 27.8364 64.3977C24.2464 64.3977 21.3092 67.335 21.3092 70.9249H13.15L49.0499 43.6736L84.9497 70.9249H76.7906C76.7906 67.335 73.8533 64.3977 70.2634 64.3977C66.6734 64.3977 63.7362 67.3348 63.7362 70.9249ZM34.3635 77.4521V74.1884H63.7362V77.4521H34.3635ZM70.2634 83.9793C68.4683 83.9793 66.9997 82.5107 66.9997 80.7156V74.1884V70.9247C66.9997 69.1297 68.4683 67.661 70.2634 67.661C72.0584 67.661 73.5271 69.1297 73.5271 70.9247V74.1884V80.7156C73.5271 82.5107 72.0584 83.9793 70.2634 83.9793ZM93.5984 75.6571C92.6193 76.7993 91.3138 77.4521 89.8451 77.4521H76.7906V74.1884H89.8451H90.9873L91.8033 71.7407L50.1921 40.2468C49.5394 39.7572 48.5603 39.7572 47.9075 40.2468L7.76506 70.7616C7.1124 71.2512 6.78597 72.0671 7.1124 72.8829C7.43882 73.6987 8.09148 74.1884 8.90745 74.1884H21.3092V77.4521H8.2546C6.78597 77.4521 5.48046 76.7995 4.50137 75.6571C3.52228 74.5147 3.19585 73.0462 3.52228 71.5776C3.6854 70.4354 4.33825 69.293 5.48046 68.4772L44.2439 39.1505L49.13 35.5753L92.6191 68.4772C93.5982 69.2932 94.4141 70.4354 94.5773 71.5776C94.9039 73.0462 94.5774 74.5148 93.5984 75.6571Z" fill="#9697AB"/></svg>
