<svg xmlns="http://www.w3.org/2000/svg" fill="none" viewBox="0 0 49 48"><path fill="#479CFC" d="M24.5 28.2c-2.25 0-4.2-1.8-4.2-4.2 0-2.25 1.8-4.2 4.2-4.2 2.25 0 4.2 1.8 4.2 4.2 0 2.25-1.95 4.2-4.2 4.2Z"/><path fill="#479CFC" fill-rule="evenodd" d="M29.6 13.8H19.4c-1.2.15-1.8.3-2.25.45-.6.15-1.05.45-1.5.9-.356.356-.524.712-.728 1.143-.053.113-.11.232-.172.357-.023.07-.05.143-.079.221-.157.429-.371 1.015-.371 2.029v10.2c.15 1.2.3 1.8.45 2.25.15.6.45 1.05.9 1.5.356.356.712.524 1.143.728.113.053.232.11.357.172.07.023.143.05.221.079.429.157 1.015.371 2.029.371h10.2c1.2-.15 1.8-.3 2.25-.45.6-.15 1.05-.45 1.5-.9.356-.356.524-.712.728-1.143.053-.113.11-.232.172-.357.023-.07.05-.143.079-.221.157-.429.371-1.015.371-2.029V18.9c-.15-1.2-.3-1.8-.45-2.25-.15-.6-.45-1.05-.9-1.5-.356-.356-.712-.524-1.143-.728-.113-.053-.232-.11-.357-.172-.07-.023-.143-.05-.221-.079-.429-.157-1.015-.371-2.029-.371Zm-5.1 3.75c-3.6 0-6.45 2.85-6.45 6.45s2.85 6.45 6.45 6.45 6.45-2.85 6.45-6.45-2.85-6.45-6.45-6.45Zm8.1-.15a1.5 1.5 0 1 1-3 0 1.5 1.5 0 0 1 3 0Z" clip-rule="evenodd"/><path fill="#479CFC" fill-rule="evenodd" d="M.5 24c0-13.255 10.745-24 24-24s24 10.745 24 24-10.745 24-24 24S.5 37.255.5 24Zm18.9-12.45h10.2c1.35.15 2.25.3 3 .6.9.45 1.5.75 2.25 1.5s1.2 1.5 1.5 2.25c.3.75.6 1.65.6 3v10.2c-.15 1.35-.3 2.25-.6 3-.45.9-.75 1.5-1.5 2.25s-1.5 1.2-2.25 1.5c-.75.3-1.65.6-3 .6H19.4c-1.35-.15-2.25-.3-3-.6-.9-.45-1.5-.75-2.25-1.5a6.55 6.55 0 0 1-1.5-2.25c-.3-.75-.6-1.65-.6-3V18.9c.15-1.35.3-2.25.6-3 .45-.9.75-1.5 1.5-2.25s1.5-1.2 2.25-1.5c.75-.3 1.65-.6 3-.6Z" clip-rule="evenodd"/></svg>