<svg xmlns="http://www.w3.org/2000/svg" fill="none" viewBox="0 0 49 48"><path fill="#479CFC" fill-rule="evenodd" d="M.5 24c0-13.255 10.745-24 24-24s24 10.745 24 24-10.745 24-24 24S.5 37.255.5 24Zm12 0c0-6.6 5.4-12 12-12s12 5.4 11.85 11.4c0 6.6-5.4 12-12 12-1.2 0-2.4-.15-3.45-.45.45-.75.9-1.65 1.2-2.55.15-.6.9-3.3.9-3.3.45.75 1.65 1.5 3 1.5 3.9 0 6.45-3.6 6.45-8.25 0-3.6-3-6.9-7.65-6.9-5.7 0-8.55 4.05-8.55 7.5 0 2.1.75 3.9 2.4 4.65.3.15.45 0 .6-.3.15-.15.3-.75.3-.9.106-.212.062-.274-.026-.398-.036-.052-.08-.114-.124-.202-.45-.6-.75-1.35-.75-2.4 0-3 2.25-5.7 5.85-5.7 3.15 0 4.95 1.95 4.95 4.65 0 3.6-1.5 6.45-3.75 6.45-1.35 0-2.25-1.05-1.95-2.25.125-.626.329-1.278.524-1.902.271-.871.526-1.686.526-2.298 0-1.05-.6-1.8-1.65-1.8-1.2 0-2.25 1.35-2.25 3.15 0 1.2.45 1.95.45 1.95s-1.2 5.55-1.5 6.6c-.15.9-.15 1.8-.15 2.7-4.2-1.8-7.2-6-7.2-10.95Z" clip-rule="evenodd"/></svg>