<svg xmlns="http://www.w3.org/2000/svg" fill="none" viewBox="0 0 49 48"><path fill="#479CFC" d="m28.4 24-6.3-3.6v7.2l6.3-3.6Z"/><path fill="#479CFC" fill-rule="evenodd" d="M.5 24c0-13.255 10.745-24 24-24s24 10.745 24 24-10.745 24-24 24S.5 37.255.5 24Zm33.3-7.95c1.05.3 1.8 1.05 2.1 2.1.6 1.95.6 5.85.6 5.85s0 3.9-.45 5.85a2.97 2.97 0 0 1-2.1 2.1c-1.95.45-9.45.45-9.45.45s-7.65 0-9.45-.45a2.97 2.97 0 0 1-2.1-2.1C12.5 27.9 12.5 24 12.5 24s0-3.9.3-5.85a2.97 2.97 0 0 1 2.1-2.1c1.95-.45 9.45-.45 9.45-.45s7.65 0 9.45.45Z" clip-rule="evenodd"/></svg>